<svg xmlns="http://www.w3.org/2000/svg" xmlns:xlink="http://www.w3.org/1999/xlink" width="500" zoomAndPan="magnify" viewBox="0 0 375 374.999991" height="500" preserveAspectRatio="xMidYMid meet" version="1.0"><defs><g/><clipPath id="5844f281c3"><path d="M 155.585938 78.285156 L 251.613281 78.285156 L 251.613281 231.574219 L 155.585938 231.574219 Z M 155.585938 78.285156 " clip-rule="nonzero"/></clipPath></defs><rect x="-37.5" width="450" fill="#ffffff" y="-37.499999" height="449.999989" fill-opacity="1"/><rect x="-37.5" width="450" fill="#253439" y="-37.499999" height="449.999989" fill-opacity="1"/><g clip-path="url(#5844f281c3)"><path fill="#cb6ce6" d="M 224.105469 114.761719 C 201.105469 141.542969 178.992188 197.175781 164.757812 205.175781 C 164.675781 205.601562 164.59375 206.019531 164.519531 206.4375 C 163.824219 210.203125 163.316406 213.695312 162.910156 216.785156 C 162.5 219.867188 162.109375 222.550781 161.789062 224.738281 C 161.476562 226.921875 161.101562 228.582031 160.796875 229.6875 C 160.496094 230.792969 160.265625 231.347656 160.265625 231.347656 C 160.222656 231.4375 160.105469 231.453125 160 231.371094 C 159.9375 231.316406 159.886719 231.242188 159.867188 231.167969 C 159.867188 231.167969 159.710938 230.441406 159.578125 229.136719 C 159.449219 227.835938 159.335938 225.960938 159.453125 223.6875 C 159.570312 221.410156 159.777344 218.652344 160.210938 215.574219 C 160.644531 212.503906 161.25 209.027344 161.976562 205.292969 C 165.535156 187.046875 171.734375 169.125 180.085938 152.449219 C 184.542969 143.554688 189.769531 134.726562 195.511719 126.457031 C 198.152344 122.652344 201.023438 118.851562 203.964844 115.183594 C 205.363281 113.4375 206.8125 111.722656 208.222656 110.136719 C 209.648438 108.539062 211.109375 107.011719 212.515625 105.582031 C 213.214844 104.867188 213.929688 104.167969 214.632812 103.496094 C 215.332031 102.820312 216.019531 102.164062 216.714844 101.539062 C 218.09375 100.292969 219.445312 99.113281 220.742188 98.035156 C 223.328125 95.878906 225.714844 94.066406 227.734375 92.632812 C 231.78125 89.761719 234.363281 88.289062 234.363281 88.289062 C 234.363281 88.289062 233.695312 88.636719 232.488281 89.328125 C 231.285156 90.015625 229.53125 91.058594 227.433594 92.449219 C 225.328125 93.839844 222.8125 95.59375 220.128906 97.703125 C 218.785156 98.753906 217.386719 99.917969 215.941406 101.140625 C 215.222656 101.753906 214.511719 102.40625 213.78125 103.066406 C 213.050781 103.726562 212.308594 104.417969 211.574219 105.121094 C 210.101562 106.523438 208.597656 108.054688 207.121094 109.644531 C 206.394531 110.429688 205.664062 111.25 204.925781 112.078125 L 204.371094 112.703125 L 203.808594 113.347656 C 203.449219 113.773438 203.089844 114.203125 202.730469 114.644531 C 201.28125 116.378906 199.8125 118.179688 198.378906 120.050781 C 197.660156 120.984375 196.929688 121.933594 196.214844 122.898438 C 195.507812 123.859375 194.800781 124.847656 194.101562 125.84375 C 192.695312 127.832031 191.292969 129.875 189.933594 131.960938 C 188.578125 134.039062 187.230469 136.195312 185.949219 138.367188 C 183.339844 142.765625 180.835938 147.257812 178.527344 151.773438 C 173.988281 160.660156 169.976562 169.96875 166.792969 179.300781 C 165.324219 183.589844 163.972656 188.019531 162.808594 192.445312 C 162.085938 195.207031 161.441406 197.890625 160.878906 200.460938 C 157.53125 191.914062 154.226562 181.828125 156.121094 172.835938 C 158.484375 176.375 160.410156 180.882812 161.046875 184.933594 C 159.496094 129.25 198.167969 92.707031 251.664062 78.359375 C 241.527344 86.667969 235.804688 99.214844 228.261719 109.578125 C 226.996094 111.316406 225.007812 112.519531 222.714844 112.96875 C 218.992188 113.695312 215.199219 114.945312 212.023438 116.46875 C 215.851562 115.457031 220.007812 114.808594 224.085938 114.773438 Z M 224.105469 114.761719 " fill-opacity="1" fill-rule="evenodd"/></g><g fill="#cb6ce6" fill-opacity="1"><g transform="translate(125.811523, 270.673399)"><g><path d="M 16.8125 -28.234375 C 19.425781 -28.234375 21.40625 -27.691406 22.75 -26.609375 C 24.09375 -25.535156 24.765625 -24.066406 24.765625 -22.203125 C 24.765625 -20.128906 24.128906 -18.265625 22.859375 -16.609375 C 21.597656 -14.960938 19.820312 -13.671875 17.53125 -12.734375 C 15.238281 -11.804688 12.628906 -11.34375 9.703125 -11.34375 L 8.5 -11.34375 L 6.625 -4.234375 C 6.570312 -4.046875 6.492188 -3.734375 6.390625 -3.296875 C 6.285156 -2.859375 6.234375 -2.503906 6.234375 -2.234375 C 6.234375 -1.734375 6.429688 -1.375 6.828125 -1.15625 C 7.222656 -0.945312 7.941406 -0.828125 8.984375 -0.796875 L 8.828125 0 C 7.597656 -0.0820312 5.945312 -0.125 3.875 -0.125 C 1.53125 -0.125 -0.195312 -0.0820312 -1.3125 0 L -1.15625 -0.796875 C -0.195312 -0.847656 0.519531 -0.953125 1 -1.109375 C 1.476562 -1.273438 1.859375 -1.582031 2.140625 -2.03125 C 2.421875 -2.488281 2.691406 -3.222656 2.953125 -4.234375 L 8.234375 -24.046875 C 8.472656 -25.003906 8.59375 -25.640625 8.59375 -25.953125 C 8.59375 -26.492188 8.390625 -26.875 7.984375 -27.09375 C 7.585938 -27.320312 6.882812 -27.453125 5.875 -27.484375 L 6.078125 -28.28125 C 7.140625 -28.195312 8.773438 -28.15625 10.984375 -28.15625 C 12.265625 -28.15625 13.222656 -28.171875 13.859375 -28.203125 Z M 10.109375 -12.140625 C 13.835938 -12.140625 16.539062 -13.109375 18.21875 -15.046875 C 19.894531 -16.992188 20.734375 -19.59375 20.734375 -22.84375 C 20.734375 -24.414062 20.332031 -25.582031 19.53125 -26.34375 C 18.726562 -27.101562 17.4375 -27.484375 15.65625 -27.484375 C 14.851562 -27.484375 14.222656 -27.378906 13.765625 -27.171875 C 13.316406 -26.972656 12.953125 -26.632812 12.671875 -26.15625 C 12.398438 -25.675781 12.144531 -24.972656 11.90625 -24.046875 L 8.75 -12.140625 Z M 10.109375 -12.140625 "/></g></g></g><g fill="#cb6ce6" fill-opacity="1"><g transform="translate(151.328923, 270.673399)"><g><path d="M 19.921875 -6.46875 L 20.6875 -6.46875 L 19.6875 -3.546875 C 18.726562 -0.804688 17.117188 0.5625 14.859375 0.5625 C 14.429688 0.5625 14.03125 0.46875 13.65625 0.28125 C 13.28125 0.09375 13 -0.171875 12.8125 -0.515625 C 12.65625 -0.890625 12.578125 -1.300781 12.578125 -1.75 C 12.578125 -2.445312 12.765625 -3.539062 13.140625 -5.03125 L 14.375 -10.03125 C 12.832031 -6.21875 11.328125 -3.5 9.859375 -1.875 C 8.398438 -0.25 6.804688 0.5625 5.078125 0.5625 C 2.835938 0.5625 1.71875 -0.460938 1.71875 -2.515625 C 1.71875 -3.367188 1.90625 -4.351562 2.28125 -5.46875 L 6.15625 -17.140625 C 6.363281 -17.773438 6.46875 -18.265625 6.46875 -18.609375 C 6.46875 -19.273438 6.148438 -19.609375 5.515625 -19.609375 C 4.984375 -19.609375 4.46875 -19.304688 3.96875 -18.703125 C 3.476562 -18.109375 2.96875 -17.050781 2.4375 -15.53125 L 1.921875 -14.0625 L 1.15625 -14.0625 L 2.15625 -16.96875 C 3.113281 -19.71875 4.722656 -21.09375 6.984375 -21.09375 C 8.847656 -21.09375 9.78125 -20.265625 9.78125 -18.609375 C 9.78125 -17.804688 9.566406 -16.769531 9.140625 -15.5 L 5.359375 -4.078125 C 5.085938 -3.273438 4.953125 -2.609375 4.953125 -2.078125 C 4.953125 -1.171875 5.378906 -0.71875 6.234375 -0.71875 C 7.265625 -0.71875 8.40625 -1.484375 9.65625 -3.015625 C 10.914062 -4.546875 12.15625 -6.664062 13.375 -9.375 C 14.601562 -12.09375 15.671875 -15.160156 16.578125 -18.578125 L 17.046875 -20.53125 C 18.566406 -20.582031 19.78125 -20.769531 20.6875 -21.09375 L 15.734375 -3.390625 C 15.546875 -2.703125 15.453125 -2.1875 15.453125 -1.84375 C 15.453125 -1.226562 15.734375 -0.921875 16.296875 -0.921875 C 16.878906 -0.921875 17.414062 -1.234375 17.90625 -1.859375 C 18.40625 -2.484375 18.90625 -3.523438 19.40625 -4.984375 Z M 19.921875 -6.46875 "/></g></g></g><g fill="#cb6ce6" fill-opacity="1"><g transform="translate(175.967793, 270.673399)"><g><path d="M 15.78125 -21.09375 C 16.5 -21.09375 17.066406 -20.878906 17.484375 -20.453125 C 17.910156 -20.023438 18.125 -19.476562 18.125 -18.8125 C 18.125 -18.007812 17.84375 -17.328125 17.28125 -16.765625 C 16.726562 -16.210938 16.082031 -15.9375 15.34375 -15.9375 C 14.851562 -15.9375 14.460938 -16.0625 14.171875 -16.3125 C 13.878906 -16.5625 13.734375 -16.914062 13.734375 -17.375 C 13.734375 -17.988281 13.894531 -18.503906 14.21875 -18.921875 C 14.539062 -19.347656 14.976562 -19.679688 15.53125 -19.921875 C 15.425781 -20.035156 15.28125 -20.09375 15.09375 -20.09375 C 13.65625 -20.09375 12.09375 -18.539062 10.40625 -15.4375 C 8.71875 -12.332031 7.125 -8.238281 5.625 -3.15625 L 4.828125 0 L 1.359375 0 L 6.15625 -17.140625 C 6.34375 -17.722656 6.4375 -18.238281 6.4375 -18.6875 C 6.4375 -19.300781 6.15625 -19.609375 5.59375 -19.609375 C 5.007812 -19.609375 4.46875 -19.296875 3.96875 -18.671875 C 3.476562 -18.046875 2.976562 -17 2.46875 -15.53125 L 1.953125 -14.0625 L 1.203125 -14.0625 L 2.203125 -16.96875 C 3.160156 -19.71875 4.769531 -21.09375 7.03125 -21.09375 C 8.550781 -21.09375 9.3125 -20.316406 9.3125 -18.765625 C 9.3125 -18.023438 9.125 -16.9375 8.75 -15.5 L 7.46875 -10.46875 C 8.90625 -14.320312 10.253906 -17.054688 11.515625 -18.671875 C 12.785156 -20.285156 14.207031 -21.09375 15.78125 -21.09375 Z M 15.78125 -21.09375 "/></g></g></g><g fill="#cb6ce6" fill-opacity="1"><g transform="translate(194.976117, 270.673399)"><g><path d="M 16.328125 -21.09375 C 17.640625 -21.09375 18.660156 -20.617188 19.390625 -19.671875 C 20.117188 -18.722656 20.484375 -17.316406 20.484375 -15.453125 C 20.484375 -13.296875 20.003906 -10.957031 19.046875 -8.4375 C 18.085938 -5.925781 16.71875 -3.796875 14.9375 -2.046875 C 13.15625 -0.304688 11.101562 0.5625 8.78125 0.5625 C 8.0625 0.5625 7.410156 0.359375 6.828125 -0.046875 C 6.242188 -0.460938 5.816406 -1.03125 5.546875 -1.75 L 4.03125 3.515625 C 3.925781 3.835938 3.875 4.15625 3.875 4.46875 C 3.875 5.164062 4.164062 5.660156 4.75 5.953125 C 5.332031 6.242188 6.171875 6.390625 7.265625 6.390625 L 7.03125 7.234375 L 6.1875 7.1875 C 3.875 7.101562 2.367188 7.0625 1.671875 7.0625 C 0.953125 7.0625 -0.519531 7.117188 -2.75 7.234375 L -2.515625 6.390625 C -1.554688 6.390625 -0.863281 6.21875 -0.4375 5.875 C -0.0078125 5.53125 0.332031 4.875 0.59375 3.90625 L 8.0625 -22.71875 C 7.269531 -20.9375 6.335938 -19.363281 5.265625 -18 C 4.203125 -16.644531 2.882812 -15.222656 1.3125 -13.734375 L 0.875 -14.25 C 2.125 -15.476562 3.164062 -16.570312 4 -17.53125 C 4.84375 -18.488281 5.679688 -19.648438 6.515625 -21.015625 C 7.359375 -22.390625 8.195312 -24.078125 9.03125 -26.078125 L 9.1875 -26.640625 C 10.625 -26.691406 11.832031 -26.878906 12.8125 -27.203125 L 8.671875 -12.65625 C 9.921875 -15.613281 11.160156 -17.757812 12.390625 -19.09375 C 13.628906 -20.425781 14.941406 -21.09375 16.328125 -21.09375 Z M 8.75 -0.359375 C 10.15625 -0.359375 11.5 -1.242188 12.78125 -3.015625 C 14.0625 -4.785156 15.09375 -6.9375 15.875 -9.46875 C 16.65625 -12 17.046875 -14.285156 17.046875 -16.328125 C 17.046875 -17.472656 16.878906 -18.335938 16.546875 -18.921875 C 16.222656 -19.515625 15.765625 -19.8125 15.171875 -19.8125 C 14.429688 -19.8125 13.5625 -19.203125 12.5625 -17.984375 C 11.5625 -16.773438 10.554688 -15.144531 9.546875 -13.09375 C 8.535156 -11.050781 7.644531 -8.816406 6.875 -6.390625 L 5.828125 -2.75 C 6.148438 -1.90625 6.550781 -1.296875 7.03125 -0.921875 C 7.507812 -0.546875 8.082031 -0.359375 8.75 -0.359375 Z M 8.75 -0.359375 "/></g></g></g><g fill="#cb6ce6" fill-opacity="1"><g transform="translate(218.976059, 270.673399)"><g><path d="M 4.078125 -3.390625 C 3.910156 -2.835938 3.828125 -2.375 3.828125 -2 C 3.828125 -1.28125 4.132812 -0.921875 4.75 -0.921875 C 5.28125 -0.921875 5.78125 -1.222656 6.25 -1.828125 C 6.71875 -2.441406 7.21875 -3.492188 7.75 -4.984375 L 8.265625 -6.46875 L 9.03125 -6.46875 L 8.03125 -3.546875 C 7.09375 -0.804688 5.492188 0.5625 3.234375 0.5625 C 1.398438 0.5625 0.484375 -0.300781 0.484375 -2.03125 C 0.484375 -2.695312 0.664062 -3.695312 1.03125 -5.03125 L 7.546875 -26.640625 C 7.679688 -27.117188 7.75 -27.488281 7.75 -27.75 C 7.75 -28.289062 7.539062 -28.679688 7.125 -28.921875 C 6.71875 -29.160156 6.019531 -29.28125 5.03125 -29.28125 L 5.3125 -30.109375 C 6.71875 -30.140625 7.988281 -30.285156 9.125 -30.546875 C 10.257812 -30.816406 11.359375 -31.21875 12.421875 -31.75 Z M 4.078125 -3.390625 "/></g></g></g><g fill="#cb6ce6" fill-opacity="1"><g transform="translate(232.034367, 270.673399)"><g><path d="M 16.609375 -18.453125 C 16.609375 -16.296875 15.394531 -14.40625 12.96875 -12.78125 C 10.550781 -11.15625 7.785156 -9.835938 4.671875 -8.828125 C 4.378906 -7.492188 4.234375 -6.203125 4.234375 -4.953125 C 4.234375 -2.398438 5.148438 -1.125 6.984375 -1.125 C 9.273438 -1.125 11.328125 -2.453125 13.140625 -5.109375 L 13.78125 -4.796875 C 12.925781 -3.328125 11.769531 -2.066406 10.3125 -1.015625 C 8.863281 0.0351562 7.34375 0.5625 5.75 0.5625 C 4.101562 0.5625 2.8125 0.0820312 1.875 -0.875 C 0.945312 -1.832031 0.484375 -3.234375 0.484375 -5.078125 C 0.484375 -7.097656 1.070312 -9.378906 2.25 -11.921875 C 3.4375 -14.460938 5.039062 -16.625 7.0625 -18.40625 C 9.09375 -20.195312 11.289062 -21.09375 13.65625 -21.09375 C 14.507812 -21.09375 15.210938 -20.863281 15.765625 -20.40625 C 16.328125 -19.957031 16.609375 -19.304688 16.609375 -18.453125 Z M 12.78125 -20.328125 C 11.925781 -20.328125 10.972656 -19.828125 9.921875 -18.828125 C 8.867188 -17.828125 7.882812 -16.5 6.96875 -14.84375 C 6.050781 -13.195312 5.351562 -11.441406 4.875 -9.578125 C 7.40625 -10.460938 9.210938 -11.316406 10.296875 -12.140625 C 11.285156 -12.910156 12.050781 -13.847656 12.59375 -14.953125 C 13.144531 -16.054688 13.421875 -17.25 13.421875 -18.53125 C 13.421875 -19.25 13.363281 -19.726562 13.25 -19.96875 C 13.144531 -20.207031 12.988281 -20.328125 12.78125 -20.328125 Z M 12.78125 -20.328125 "/></g></g></g><g fill="#cb6ce6" fill-opacity="1"><g transform="translate(147.533075, 326.174856)"><g/></g></g><g fill="#cb6ce6" fill-opacity="1"><g transform="translate(159.646488, 326.174856)"><g><path d="M 16.8125 -28.234375 C 19.425781 -28.234375 21.40625 -27.691406 22.75 -26.609375 C 24.09375 -25.535156 24.765625 -24.066406 24.765625 -22.203125 C 24.765625 -20.128906 24.128906 -18.265625 22.859375 -16.609375 C 21.597656 -14.960938 19.820312 -13.671875 17.53125 -12.734375 C 15.238281 -11.804688 12.628906 -11.34375 9.703125 -11.34375 L 8.5 -11.34375 L 6.625 -4.234375 C 6.570312 -4.046875 6.492188 -3.734375 6.390625 -3.296875 C 6.285156 -2.859375 6.234375 -2.503906 6.234375 -2.234375 C 6.234375 -1.734375 6.429688 -1.375 6.828125 -1.15625 C 7.222656 -0.945312 7.941406 -0.828125 8.984375 -0.796875 L 8.828125 0 C 7.597656 -0.0820312 5.945312 -0.125 3.875 -0.125 C 1.53125 -0.125 -0.195312 -0.0820312 -1.3125 0 L -1.15625 -0.796875 C -0.195312 -0.847656 0.519531 -0.953125 1 -1.109375 C 1.476562 -1.273438 1.859375 -1.582031 2.140625 -2.03125 C 2.421875 -2.488281 2.691406 -3.222656 2.953125 -4.234375 L 8.234375 -24.046875 C 8.472656 -25.003906 8.59375 -25.640625 8.59375 -25.953125 C 8.59375 -26.492188 8.390625 -26.875 7.984375 -27.09375 C 7.585938 -27.320312 6.882812 -27.453125 5.875 -27.484375 L 6.078125 -28.28125 C 7.140625 -28.195312 8.773438 -28.15625 10.984375 -28.15625 C 12.265625 -28.15625 13.222656 -28.171875 13.859375 -28.203125 Z M 10.109375 -12.140625 C 13.835938 -12.140625 16.539062 -13.109375 18.21875 -15.046875 C 19.894531 -16.992188 20.734375 -19.59375 20.734375 -22.84375 C 20.734375 -24.414062 20.332031 -25.582031 19.53125 -26.34375 C 18.726562 -27.101562 17.4375 -27.484375 15.65625 -27.484375 C 14.851562 -27.484375 14.222656 -27.378906 13.765625 -27.171875 C 13.316406 -26.972656 12.953125 -26.632812 12.671875 -26.15625 C 12.398438 -25.675781 12.144531 -24.972656 11.90625 -24.046875 L 8.75 -12.140625 Z M 10.109375 -12.140625 "/></g></g></g><g fill="#cb6ce6" fill-opacity="1"><g transform="translate(185.163888, 326.174856)"><g><path d="M 16.609375 -18.453125 C 16.609375 -16.296875 15.394531 -14.40625 12.96875 -12.78125 C 10.550781 -11.15625 7.785156 -9.835938 4.671875 -8.828125 C 4.378906 -7.492188 4.234375 -6.203125 4.234375 -4.953125 C 4.234375 -2.398438 5.148438 -1.125 6.984375 -1.125 C 9.273438 -1.125 11.328125 -2.453125 13.140625 -5.109375 L 13.78125 -4.796875 C 12.925781 -3.328125 11.769531 -2.066406 10.3125 -1.015625 C 8.863281 0.0351562 7.34375 0.5625 5.75 0.5625 C 4.101562 0.5625 2.8125 0.0820312 1.875 -0.875 C 0.945312 -1.832031 0.484375 -3.234375 0.484375 -5.078125 C 0.484375 -7.097656 1.070312 -9.378906 2.25 -11.921875 C 3.4375 -14.460938 5.039062 -16.625 7.0625 -18.40625 C 9.09375 -20.195312 11.289062 -21.09375 13.65625 -21.09375 C 14.507812 -21.09375 15.210938 -20.863281 15.765625 -20.40625 C 16.328125 -19.957031 16.609375 -19.304688 16.609375 -18.453125 Z M 12.78125 -20.328125 C 11.925781 -20.328125 10.972656 -19.828125 9.921875 -18.828125 C 8.867188 -17.828125 7.882812 -16.5 6.96875 -14.84375 C 6.050781 -13.195312 5.351562 -11.441406 4.875 -9.578125 C 7.40625 -10.460938 9.210938 -11.316406 10.296875 -12.140625 C 11.285156 -12.910156 12.050781 -13.847656 12.59375 -14.953125 C 13.144531 -16.054688 13.421875 -17.25 13.421875 -18.53125 C 13.421875 -19.25 13.363281 -19.726562 13.25 -19.96875 C 13.144531 -20.207031 12.988281 -20.328125 12.78125 -20.328125 Z M 12.78125 -20.328125 "/></g></g></g><g fill="#cb6ce6" fill-opacity="1"><g transform="translate(204.292011, 326.174856)"><g><path d="M 21.171875 -6.46875 L 20.171875 -3.546875 C 19.210938 -0.804688 17.601562 0.5625 15.34375 0.5625 C 14.132812 0.5625 13.289062 0.175781 12.8125 -0.59375 C 12.601562 -0.914062 12.5 -1.359375 12.5 -1.921875 C 12.5 -2.640625 12.722656 -3.675781 13.171875 -5.03125 L 16.96875 -16.453125 C 17.238281 -17.328125 17.375 -17.976562 17.375 -18.40625 C 17.375 -19.34375 16.945312 -19.8125 16.09375 -19.8125 C 15.082031 -19.8125 13.929688 -19.070312 12.640625 -17.59375 C 11.347656 -16.113281 10.078125 -14.082031 8.828125 -11.5 C 7.578125 -8.914062 6.5 -6.054688 5.59375 -2.921875 L 4.875 0 L 1.390625 0 L 6.1875 -17.140625 C 6.375 -17.828125 6.46875 -18.316406 6.46875 -18.609375 C 6.46875 -19.273438 6.175781 -19.609375 5.59375 -19.609375 C 5.007812 -19.609375 4.488281 -19.316406 4.03125 -18.734375 C 3.582031 -18.148438 3.078125 -17.082031 2.515625 -15.53125 L 2 -14.0625 L 1.234375 -14.0625 L 2.234375 -16.96875 C 3.191406 -19.71875 4.773438 -21.09375 6.984375 -21.09375 C 7.835938 -21.09375 8.441406 -20.882812 8.796875 -20.46875 C 9.160156 -20.050781 9.34375 -19.472656 9.34375 -18.734375 C 9.34375 -18.015625 9.15625 -16.9375 8.78125 -15.5 L 7.390625 -10.03125 C 9.085938 -14.050781 10.710938 -16.898438 12.265625 -18.578125 C 13.828125 -20.253906 15.539062 -21.09375 17.40625 -21.09375 C 19.5625 -21.09375 20.640625 -20.09375 20.640625 -18.09375 C 20.640625 -17.21875 20.441406 -16.207031 20.046875 -15.0625 L 16.171875 -3.390625 C 15.960938 -2.753906 15.859375 -2.25 15.859375 -1.875 C 15.859375 -1.238281 16.175781 -0.921875 16.8125 -0.921875 C 17.34375 -0.921875 17.851562 -1.21875 18.34375 -1.8125 C 18.84375 -2.414062 19.359375 -3.472656 19.890625 -4.984375 L 20.40625 -6.46875 Z M 21.171875 -6.46875 "/></g></g></g><g fill="#ffffff" fill-opacity="1"><g transform="translate(155.565265, 349.014601)"><g><path d="M 0.609375 0 L 0.609375 -7.171875 L 3.15625 -7.171875 C 3.675781 -7.171875 4.132812 -7.070312 4.53125 -6.875 C 4.925781 -6.6875 5.253906 -6.429688 5.515625 -6.109375 C 5.785156 -5.785156 5.988281 -5.40625 6.125 -4.96875 C 6.269531 -4.53125 6.34375 -4.066406 6.34375 -3.578125 C 6.34375 -3.078125 6.269531 -2.609375 6.125 -2.171875 C 5.976562 -1.742188 5.773438 -1.367188 5.515625 -1.046875 C 5.265625 -0.722656 4.960938 -0.46875 4.609375 -0.28125 C 4.253906 -0.09375 3.878906 0 3.484375 0 Z M 3.109375 -0.984375 C 3.492188 -0.984375 3.820312 -1.050781 4.09375 -1.1875 C 4.363281 -1.332031 4.585938 -1.519531 4.765625 -1.75 C 4.941406 -1.988281 5.066406 -2.265625 5.140625 -2.578125 C 5.222656 -2.898438 5.265625 -3.234375 5.265625 -3.578125 C 5.265625 -3.921875 5.222656 -4.253906 5.140625 -4.578125 C 5.066406 -4.898438 4.941406 -5.179688 4.765625 -5.421875 C 4.597656 -5.660156 4.375 -5.851562 4.09375 -6 C 3.820312 -6.144531 3.492188 -6.21875 3.109375 -6.21875 L 1.671875 -6.21875 L 1.671875 -0.984375 Z M 3.109375 -0.984375 "/></g></g></g><g fill="#ffffff" fill-opacity="1"><g transform="translate(162.420305, 349.014601)"><g><path d="M 1.59375 0 L 0.609375 0 L 0.609375 -4.84375 L 1.578125 -4.84375 Z M 1.09375 -5.890625 C 0.914062 -5.890625 0.765625 -5.953125 0.640625 -6.078125 C 0.523438 -6.203125 0.46875 -6.351562 0.46875 -6.53125 C 0.46875 -6.707031 0.523438 -6.851562 0.640625 -6.96875 C 0.765625 -7.09375 0.914062 -7.15625 1.09375 -7.15625 C 1.269531 -7.15625 1.414062 -7.09375 1.53125 -6.96875 C 1.65625 -6.851562 1.71875 -6.707031 1.71875 -6.53125 C 1.71875 -6.351562 1.65625 -6.203125 1.53125 -6.078125 C 1.414062 -5.953125 1.269531 -5.890625 1.09375 -5.890625 Z M 1.09375 -5.890625 "/></g></g></g><g fill="#ffffff" fill-opacity="1"><g transform="translate(164.543547, 349.014601)"><g><path d="M 2.765625 -0.25 C 2.429688 -0.25 2.125 -0.304688 1.84375 -0.421875 C 1.5625 -0.546875 1.3125 -0.71875 1.09375 -0.9375 C 0.882812 -1.164062 0.722656 -1.421875 0.609375 -1.703125 C 0.492188 -1.992188 0.4375 -2.300781 0.4375 -2.625 C 0.4375 -2.945312 0.492188 -3.25 0.609375 -3.53125 C 0.722656 -3.8125 0.882812 -4.054688 1.09375 -4.265625 C 1.3125 -4.484375 1.5625 -4.648438 1.84375 -4.765625 C 2.125 -4.890625 2.429688 -4.953125 2.765625 -4.953125 C 3.109375 -4.953125 3.40625 -4.898438 3.65625 -4.796875 C 3.90625 -4.703125 4.125 -4.5625 4.3125 -4.375 L 4.515625 -4.84375 L 5.28125 -4.84375 C 5.28125 -4.820312 5.28125 -4.796875 5.28125 -4.765625 C 5.28125 -4.734375 5.28125 -4.671875 5.28125 -4.578125 C 5.28125 -4.492188 5.28125 -4.367188 5.28125 -4.203125 C 5.28125 -4.046875 5.28125 -3.828125 5.28125 -3.546875 C 5.28125 -3.265625 5.28125 -2.910156 5.28125 -2.484375 C 5.28125 -2.054688 5.28125 -1.539062 5.28125 -0.9375 C 5.28125 -0.738281 5.273438 -0.539062 5.265625 -0.34375 C 5.253906 -0.15625 5.222656 0.0234375 5.171875 0.203125 C 5.128906 0.378906 5.066406 0.550781 4.984375 0.71875 C 4.898438 0.882812 4.789062 1.046875 4.65625 1.203125 C 4.382812 1.484375 4.078125 1.671875 3.734375 1.765625 C 3.390625 1.867188 3.03125 1.921875 2.65625 1.921875 C 2.332031 1.921875 2.023438 1.878906 1.734375 1.796875 C 1.453125 1.710938 1.195312 1.601562 0.96875 1.46875 L 0.96875 0.390625 C 1.101562 0.578125 1.3125 0.734375 1.59375 0.859375 C 1.882812 0.984375 2.210938 1.046875 2.578125 1.046875 C 2.816406 1.046875 3.039062 1.007812 3.25 0.9375 C 3.457031 0.875 3.640625 0.773438 3.796875 0.640625 C 3.953125 0.515625 4.078125 0.347656 4.171875 0.140625 C 4.265625 -0.0664062 4.3125 -0.316406 4.3125 -0.609375 L 4.3125 -0.796875 C 4.226562 -0.722656 4.125 -0.648438 4 -0.578125 C 3.882812 -0.515625 3.757812 -0.457031 3.625 -0.40625 C 3.488281 -0.351562 3.34375 -0.3125 3.1875 -0.28125 C 3.039062 -0.257812 2.898438 -0.25 2.765625 -0.25 Z M 2.859375 -4.0625 C 2.660156 -4.0625 2.472656 -4.023438 2.296875 -3.953125 C 2.128906 -3.878906 1.976562 -3.773438 1.84375 -3.640625 C 1.707031 -3.515625 1.601562 -3.363281 1.53125 -3.1875 C 1.457031 -3.007812 1.421875 -2.820312 1.421875 -2.625 C 1.421875 -2.414062 1.457031 -2.222656 1.53125 -2.046875 C 1.601562 -1.867188 1.707031 -1.710938 1.84375 -1.578125 C 1.976562 -1.453125 2.128906 -1.347656 2.296875 -1.265625 C 2.472656 -1.191406 2.660156 -1.15625 2.859375 -1.15625 C 3.054688 -1.15625 3.242188 -1.179688 3.421875 -1.234375 C 3.597656 -1.296875 3.75 -1.390625 3.875 -1.515625 C 4 -1.640625 4.097656 -1.789062 4.171875 -1.96875 C 4.242188 -2.15625 4.28125 -2.375 4.28125 -2.625 C 4.28125 -2.882812 4.242188 -3.101562 4.171875 -3.28125 C 4.097656 -3.46875 4 -3.617188 3.875 -3.734375 C 3.75 -3.847656 3.597656 -3.929688 3.421875 -3.984375 C 3.242188 -4.035156 3.054688 -4.0625 2.859375 -4.0625 Z M 2.859375 -4.0625 "/></g></g></g><g fill="#ffffff" fill-opacity="1"><g transform="translate(170.518959, 349.014601)"><g><path d="M 1.59375 0 L 0.609375 0 L 0.609375 -4.84375 L 1.578125 -4.84375 Z M 1.09375 -5.890625 C 0.914062 -5.890625 0.765625 -5.953125 0.640625 -6.078125 C 0.523438 -6.203125 0.46875 -6.351562 0.46875 -6.53125 C 0.46875 -6.707031 0.523438 -6.851562 0.640625 -6.96875 C 0.765625 -7.09375 0.914062 -7.15625 1.09375 -7.15625 C 1.269531 -7.15625 1.414062 -7.09375 1.53125 -6.96875 C 1.65625 -6.851562 1.71875 -6.707031 1.71875 -6.53125 C 1.71875 -6.351562 1.65625 -6.203125 1.53125 -6.078125 C 1.414062 -5.953125 1.269531 -5.890625 1.09375 -5.890625 Z M 1.09375 -5.890625 "/></g></g></g><g fill="#ffffff" fill-opacity="1"><g transform="translate(172.642202, 349.014601)"><g><path d="M 3.1875 -0.015625 C 2.914062 0.078125 2.644531 0.132812 2.375 0.15625 C 2.101562 0.175781 1.859375 0.140625 1.640625 0.046875 C 1.429688 -0.046875 1.257812 -0.21875 1.125 -0.46875 C 0.988281 -0.71875 0.921875 -1.0625 0.921875 -1.5 L 0.921875 -3.96875 L 0.21875 -3.96875 L 0.21875 -4.640625 L 0.921875 -4.84375 L 0.921875 -6.140625 L 1.90625 -6.140625 L 1.90625 -4.84375 L 3.21875 -4.84375 L 3.21875 -3.96875 L 1.90625 -3.96875 L 1.90625 -1.359375 C 1.90625 -1.191406 1.921875 -1.0625 1.953125 -0.96875 C 1.992188 -0.875 2.054688 -0.800781 2.140625 -0.75 C 2.234375 -0.707031 2.347656 -0.6875 2.484375 -0.6875 C 2.628906 -0.6875 2.800781 -0.703125 3 -0.734375 Z M 3.1875 -0.015625 "/></g></g></g><g fill="#ffffff" fill-opacity="1"><g transform="translate(176.100056, 349.014601)"><g><path d="M 5.15625 -4.84375 L 5.15625 0 L 4.328125 0 L 4.171875 -0.5625 C 4.003906 -0.332031 3.789062 -0.160156 3.53125 -0.046875 C 3.269531 0.0664062 3.003906 0.125 2.734375 0.125 C 2.390625 0.125 2.070312 0.0625 1.78125 -0.0625 C 1.488281 -0.195312 1.234375 -0.378906 1.015625 -0.609375 C 0.796875 -0.835938 0.617188 -1.109375 0.484375 -1.421875 C 0.359375 -1.734375 0.296875 -2.066406 0.296875 -2.421875 C 0.296875 -2.765625 0.359375 -3.09375 0.484375 -3.40625 C 0.617188 -3.71875 0.796875 -3.988281 1.015625 -4.21875 C 1.234375 -4.445312 1.488281 -4.625 1.78125 -4.75 C 2.070312 -4.882812 2.390625 -4.953125 2.734375 -4.953125 C 3.003906 -4.953125 3.257812 -4.898438 3.5 -4.796875 C 3.75 -4.691406 3.972656 -4.53125 4.171875 -4.3125 L 4.328125 -4.84375 Z M 2.734375 -0.75 C 2.921875 -0.75 3.101562 -0.789062 3.28125 -0.875 C 3.457031 -0.96875 3.609375 -1.085938 3.734375 -1.234375 C 3.867188 -1.390625 3.972656 -1.566406 4.046875 -1.765625 C 4.117188 -1.972656 4.15625 -2.191406 4.15625 -2.421875 C 4.15625 -2.648438 4.117188 -2.863281 4.046875 -3.0625 C 3.972656 -3.257812 3.867188 -3.4375 3.734375 -3.59375 C 3.609375 -3.75 3.457031 -3.867188 3.28125 -3.953125 C 3.101562 -4.035156 2.921875 -4.078125 2.734375 -4.078125 C 2.535156 -4.078125 2.347656 -4.035156 2.171875 -3.953125 C 1.992188 -3.867188 1.84375 -3.75 1.71875 -3.59375 C 1.59375 -3.4375 1.488281 -3.257812 1.40625 -3.0625 C 1.332031 -2.863281 1.296875 -2.648438 1.296875 -2.421875 C 1.296875 -2.191406 1.332031 -1.972656 1.40625 -1.765625 C 1.488281 -1.566406 1.59375 -1.390625 1.71875 -1.234375 C 1.84375 -1.085938 1.992188 -0.96875 2.171875 -0.875 C 2.347656 -0.789062 2.535156 -0.75 2.734375 -0.75 Z M 2.734375 -0.75 "/></g></g></g><g fill="#ffffff" fill-opacity="1"><g transform="translate(181.691258, 349.014601)"><g><path d="M 1.59375 -7.375 L 1.59375 0 L 0.609375 0 L 0.609375 -7.375 Z M 1.59375 -7.375 "/></g></g></g><g fill="#ffffff" fill-opacity="1"><g transform="translate(183.834724, 349.014601)"><g/></g></g><g fill="#ffffff" fill-opacity="1"><g transform="translate(186.473607, 349.014601)"><g><path d="M 0.609375 0 L 0.609375 -7.171875 L 3.15625 -7.171875 C 3.675781 -7.171875 4.132812 -7.070312 4.53125 -6.875 C 4.925781 -6.6875 5.253906 -6.429688 5.515625 -6.109375 C 5.785156 -5.785156 5.988281 -5.40625 6.125 -4.96875 C 6.269531 -4.53125 6.34375 -4.066406 6.34375 -3.578125 C 6.34375 -3.078125 6.269531 -2.609375 6.125 -2.171875 C 5.976562 -1.742188 5.773438 -1.367188 5.515625 -1.046875 C 5.265625 -0.722656 4.960938 -0.46875 4.609375 -0.28125 C 4.253906 -0.09375 3.878906 0 3.484375 0 Z M 3.109375 -0.984375 C 3.492188 -0.984375 3.820312 -1.050781 4.09375 -1.1875 C 4.363281 -1.332031 4.585938 -1.519531 4.765625 -1.75 C 4.941406 -1.988281 5.066406 -2.265625 5.140625 -2.578125 C 5.222656 -2.898438 5.265625 -3.234375 5.265625 -3.578125 C 5.265625 -3.921875 5.222656 -4.253906 5.140625 -4.578125 C 5.066406 -4.898438 4.941406 -5.179688 4.765625 -5.421875 C 4.597656 -5.660156 4.375 -5.851562 4.09375 -6 C 3.820312 -6.144531 3.492188 -6.21875 3.109375 -6.21875 L 1.671875 -6.21875 L 1.671875 -0.984375 Z M 3.109375 -0.984375 "/></g></g></g><g fill="#ffffff" fill-opacity="1"><g transform="translate(193.328646, 349.014601)"><g><path d="M 2.859375 0.125 C 2.503906 0.125 2.175781 0.0625 1.875 -0.0625 C 1.570312 -0.195312 1.304688 -0.378906 1.078125 -0.609375 C 0.847656 -0.835938 0.664062 -1.109375 0.53125 -1.421875 C 0.394531 -1.734375 0.328125 -2.066406 0.328125 -2.421875 C 0.328125 -2.765625 0.390625 -3.09375 0.515625 -3.40625 C 0.640625 -3.71875 0.804688 -3.988281 1.015625 -4.21875 C 1.234375 -4.445312 1.484375 -4.625 1.765625 -4.75 C 2.046875 -4.882812 2.347656 -4.953125 2.671875 -4.953125 C 3.003906 -4.953125 3.3125 -4.894531 3.59375 -4.78125 C 3.875 -4.664062 4.113281 -4.484375 4.3125 -4.234375 C 4.519531 -3.992188 4.679688 -3.6875 4.796875 -3.3125 C 4.910156 -2.945312 4.96875 -2.503906 4.96875 -1.984375 L 1.375 -1.984375 C 1.425781 -1.804688 1.5 -1.640625 1.59375 -1.484375 C 1.695312 -1.335938 1.816406 -1.207031 1.953125 -1.09375 C 2.085938 -0.988281 2.238281 -0.90625 2.40625 -0.84375 C 2.582031 -0.78125 2.769531 -0.75 2.96875 -0.75 C 3.21875 -0.75 3.453125 -0.796875 3.671875 -0.890625 C 3.890625 -0.984375 4.078125 -1.109375 4.234375 -1.265625 L 4.84375 -0.65625 C 4.601562 -0.414062 4.3125 -0.222656 3.96875 -0.078125 C 3.632812 0.0546875 3.265625 0.125 2.859375 0.125 Z M 2.671875 -4.0625 C 2.523438 -4.0625 2.378906 -4.03125 2.234375 -3.96875 C 2.097656 -3.90625 1.96875 -3.820312 1.84375 -3.71875 C 1.726562 -3.613281 1.628906 -3.484375 1.546875 -3.328125 C 1.460938 -3.179688 1.398438 -3.019531 1.359375 -2.84375 L 3.921875 -2.84375 C 3.910156 -3.007812 3.875 -3.164062 3.8125 -3.3125 C 3.75 -3.457031 3.660156 -3.585938 3.546875 -3.703125 C 3.441406 -3.816406 3.316406 -3.90625 3.171875 -3.96875 C 3.035156 -4.03125 2.867188 -4.0625 2.671875 -4.0625 Z M 2.671875 -4.0625 "/></g></g></g><g fill="#ffffff" fill-opacity="1"><g transform="translate(198.687304, 349.014601)"><g><path d="M 2.828125 -1.015625 C 2.878906 -1.066406 2.925781 -1.125 2.96875 -1.1875 C 3.019531 -1.257812 3.046875 -1.335938 3.046875 -1.421875 C 3.046875 -1.535156 3.007812 -1.628906 2.9375 -1.703125 C 2.863281 -1.773438 2.769531 -1.835938 2.65625 -1.890625 C 2.539062 -1.941406 2.421875 -1.976562 2.296875 -2 C 2.179688 -2.03125 2.082031 -2.054688 2 -2.078125 C 1.78125 -2.128906 1.570312 -2.191406 1.375 -2.265625 C 1.175781 -2.347656 1.003906 -2.441406 0.859375 -2.546875 C 0.710938 -2.660156 0.597656 -2.789062 0.515625 -2.9375 C 0.429688 -3.09375 0.390625 -3.273438 0.390625 -3.484375 C 0.390625 -3.679688 0.4375 -3.863281 0.53125 -4.03125 C 0.625 -4.207031 0.75 -4.359375 0.90625 -4.484375 C 1.070312 -4.617188 1.257812 -4.722656 1.46875 -4.796875 C 1.6875 -4.878906 1.910156 -4.921875 2.140625 -4.921875 C 2.347656 -4.921875 2.546875 -4.890625 2.734375 -4.828125 C 2.921875 -4.765625 3.09375 -4.679688 3.25 -4.578125 C 3.40625 -4.472656 3.535156 -4.347656 3.640625 -4.203125 C 3.742188 -4.054688 3.8125 -3.890625 3.84375 -3.703125 L 2.96875 -3.5 C 2.925781 -3.65625 2.835938 -3.785156 2.703125 -3.890625 C 2.566406 -4.003906 2.378906 -4.0625 2.140625 -4.0625 C 2.054688 -4.0625 1.972656 -4.050781 1.890625 -4.03125 C 1.804688 -4.007812 1.722656 -3.972656 1.640625 -3.921875 C 1.566406 -3.878906 1.503906 -3.820312 1.453125 -3.75 C 1.410156 -3.6875 1.390625 -3.609375 1.390625 -3.515625 C 1.390625 -3.421875 1.414062 -3.335938 1.46875 -3.265625 C 1.53125 -3.203125 1.597656 -3.148438 1.671875 -3.109375 C 1.753906 -3.066406 1.84375 -3.03125 1.9375 -3 C 2.03125 -2.976562 2.117188 -2.957031 2.203125 -2.9375 C 2.554688 -2.84375 2.851562 -2.742188 3.09375 -2.640625 C 3.332031 -2.546875 3.519531 -2.4375 3.65625 -2.3125 C 3.800781 -2.195312 3.898438 -2.066406 3.953125 -1.921875 C 4.015625 -1.773438 4.046875 -1.609375 4.046875 -1.421875 C 4.046875 -1.210938 3.992188 -1.007812 3.890625 -0.8125 C 3.796875 -0.625 3.660156 -0.460938 3.484375 -0.328125 C 3.316406 -0.191406 3.113281 -0.0820312 2.875 0 C 2.632812 0.0703125 2.378906 0.109375 2.109375 0.109375 C 1.679688 0.109375 1.304688 0.0078125 0.984375 -0.1875 C 0.660156 -0.394531 0.441406 -0.671875 0.328125 -1.015625 L 1.15625 -1.390625 C 1.257812 -1.160156 1.394531 -1 1.5625 -0.90625 C 1.726562 -0.820312 1.921875 -0.78125 2.140625 -0.78125 C 2.410156 -0.78125 2.640625 -0.859375 2.828125 -1.015625 Z M 2.828125 -1.015625 "/></g></g></g><g fill="#ffffff" fill-opacity="1"><g transform="translate(203.034891, 349.014601)"><g><path d="M 3.1875 -0.015625 C 2.914062 0.078125 2.644531 0.132812 2.375 0.15625 C 2.101562 0.175781 1.859375 0.140625 1.640625 0.046875 C 1.429688 -0.046875 1.257812 -0.21875 1.125 -0.46875 C 0.988281 -0.71875 0.921875 -1.0625 0.921875 -1.5 L 0.921875 -3.96875 L 0.21875 -3.96875 L 0.21875 -4.640625 L 0.921875 -4.84375 L 0.921875 -6.140625 L 1.90625 -6.140625 L 1.90625 -4.84375 L 3.21875 -4.84375 L 3.21875 -3.96875 L 1.90625 -3.96875 L 1.90625 -1.359375 C 1.90625 -1.191406 1.921875 -1.0625 1.953125 -0.96875 C 1.992188 -0.875 2.054688 -0.800781 2.140625 -0.75 C 2.234375 -0.707031 2.347656 -0.6875 2.484375 -0.6875 C 2.628906 -0.6875 2.800781 -0.703125 3 -0.734375 Z M 3.1875 -0.015625 "/></g></g></g><g fill="#ffffff" fill-opacity="1"><g transform="translate(206.492745, 349.014601)"><g><path d="M 1.59375 0 L 0.609375 0 L 0.609375 -4.84375 L 1.578125 -4.84375 Z M 1.09375 -5.890625 C 0.914062 -5.890625 0.765625 -5.953125 0.640625 -6.078125 C 0.523438 -6.203125 0.46875 -6.351562 0.46875 -6.53125 C 0.46875 -6.707031 0.523438 -6.851562 0.640625 -6.96875 C 0.765625 -7.09375 0.914062 -7.15625 1.09375 -7.15625 C 1.269531 -7.15625 1.414062 -7.09375 1.53125 -6.96875 C 1.65625 -6.851562 1.71875 -6.707031 1.71875 -6.53125 C 1.71875 -6.351562 1.65625 -6.203125 1.53125 -6.078125 C 1.414062 -5.953125 1.269531 -5.890625 1.09375 -5.890625 Z M 1.09375 -5.890625 "/></g></g></g><g fill="#ffffff" fill-opacity="1"><g transform="translate(208.615988, 349.014601)"><g><path d="M 1.53125 0 L 0.546875 0 L 0.546875 -4.84375 L 1.328125 -4.84375 L 1.53125 -4.421875 C 1.6875 -4.578125 1.878906 -4.703125 2.109375 -4.796875 C 2.335938 -4.898438 2.585938 -4.953125 2.859375 -4.953125 C 3.035156 -4.953125 3.234375 -4.925781 3.453125 -4.875 C 3.679688 -4.820312 3.890625 -4.71875 4.078125 -4.5625 C 4.273438 -4.414062 4.4375 -4.210938 4.5625 -3.953125 C 4.695312 -3.691406 4.765625 -3.351562 4.765625 -2.9375 L 4.765625 0 L 3.828125 0 L 3.828125 -2.9375 C 3.828125 -3.144531 3.796875 -3.320312 3.734375 -3.46875 C 3.671875 -3.613281 3.585938 -3.726562 3.484375 -3.8125 C 3.378906 -3.90625 3.257812 -3.96875 3.125 -4 C 3 -4.039062 2.863281 -4.0625 2.71875 -4.0625 C 2.613281 -4.0625 2.488281 -4.039062 2.34375 -4 C 2.207031 -3.957031 2.078125 -3.890625 1.953125 -3.796875 C 1.835938 -3.710938 1.738281 -3.597656 1.65625 -3.453125 C 1.570312 -3.316406 1.53125 -3.148438 1.53125 -2.953125 Z M 1.53125 0 "/></g></g></g><g fill="#ffffff" fill-opacity="1"><g transform="translate(214.015091, 349.014601)"><g><path d="M 2.15625 -0.546875 L 0.09375 -4.84375 L 1.1875 -4.84375 L 2.6875 -1.703125 L 4.15625 -4.84375 L 5.234375 -4.84375 L 2.109375 1.9375 L 1.03125 1.9375 Z M 2.15625 -0.546875 "/></g></g></g></svg>